<svg width="74" height="35" viewBox="0 0 74 35" fill="none" xmlns="http://www.w3.org/2000/svg">
<g clip-path="url(#clip0_1200_4301)">
<path d="M71.9329 0H73.7723V14.8325H71.9329V8.22147H66.2288V6.37795H71.9329V0ZM64.5382 8.22147V8.22987V14.8325H62.6987V0H64.5382V6.37795V8.22147Z" fill="white"/>
<path d="M71.9312 20.0874H73.7708V34.9199H71.9312V28.3173V28.3089V26.4654V20.0874ZM70.2407 28.3089H64.5367V34.9199H62.6973V20.0874H64.5367V26.4654H70.2407V28.3089Z" fill="white"/>
<path d="M9.23402 0.0722656H11.0735V14.9047H9.23402V8.29375H1.83945V14.9047H0V0.0722656H1.83945V6.4503H9.23402V0.0722656Z" fill="white"/>
<path d="M16.7757 1.91581V13.0613H24.2806V14.9047H14.9363V0.0722656H24.0231V1.91581H16.7757Z" fill="white"/>
<path d="M42.1704 14.8325V0H44.0101V12.989H50.9814V14.8325H42.1704Z" fill="white"/>
<path d="M54.458 14.8325V1.84345H50.0435V0H60.6939V1.84345H56.2793V14.8325H54.458Z" fill="white"/>
<path d="M5.91382 34.8174V19.9849H7.42218L12.7911 30.4045L18.091 19.9849H19.5993L19.6177 34.8174H17.8519L17.8347 24.0013L13.1796 33.0163H12.3335L7.6797 24.0686V34.8174H5.91382Z" fill="white"/>
<path d="M41.9712 34.8174V21.8284H37.5566V19.9849H48.2068V21.8284H43.7923V34.8174H41.9712Z" fill="white"/>
<path d="M55.1568 34.9867C54.1757 34.9867 53.2713 34.7996 52.4435 34.4254C51.6159 34.0509 50.8985 33.5212 50.2914 32.8362C49.6843 32.1509 49.2091 31.3493 48.8658 30.4312C48.5225 29.513 48.3508 28.503 48.3508 27.4012C48.3508 26.2992 48.5225 25.2893 48.8658 24.371C49.2091 23.4528 49.6874 22.6512 50.3005 21.9661C50.9136 21.2809 51.6343 20.7512 52.4619 20.3769C53.2897 20.0026 54.1941 19.8154 55.1752 19.8154C56.1684 19.8154 57.0851 20.0097 57.925 20.3982C58.7652 20.7867 59.4795 21.3623 60.068 22.1251L58.8724 23.46C58.3819 22.8667 57.8301 22.4252 57.217 22.1357C56.6038 21.8461 55.9477 21.7013 55.2489 21.7013C54.5253 21.7013 53.854 21.8426 53.2346 22.1251C52.6154 22.4075 52.0788 22.8031 51.625 23.3116C51.1714 23.8201 50.8188 24.4241 50.5673 25.1234C50.3161 25.8226 50.1903 26.582 50.1903 27.4012C50.1903 28.2206 50.3159 28.9798 50.5673 29.6791C50.8188 30.3783 51.1714 30.9822 51.625 31.4906C52.0788 31.9993 52.6154 32.3949 53.2346 32.6772C53.8538 32.9599 54.5253 33.1009 55.2489 33.1009C55.9479 33.1009 56.6038 32.9562 57.217 32.6667C57.8301 32.377 58.3819 31.9285 58.8724 31.3212L60.068 32.6562C59.4795 33.4188 58.7652 33.998 57.925 34.3935C57.0851 34.7891 56.1624 34.987 55.1566 34.987L55.1568 34.9867Z" fill="white"/>
<path d="M32.1751 16.8647L32.1786 16.8699L36.0624 22.4488C38.4737 25.9384 37.7201 30.8242 34.385 33.3429C31.0497 35.8616 26.3764 35.0739 23.9674 31.5871C21.5581 28.1 22.312 23.2141 25.647 20.6956L28.607 18.4432L29.6417 19.9299L26.6792 22.1841C24.1276 24.1111 23.5521 27.8452 25.393 30.5102C27.2345 33.1755 30.8061 33.7774 33.3551 31.8524C35.9038 29.9274 36.4797 26.1933 34.6387 23.5282L30.76 17.9566L30.7532 17.947L32.1754 16.8648L32.1751 16.8647Z" fill="white"/>
<path d="M30.7635 17.9615L30.7599 17.9563L26.8762 12.3774C24.4651 8.8878 25.2185 4.00204 28.5538 1.48323C31.8891 -1.03547 36.5621 -0.247754 38.9714 3.23904C41.3807 6.72617 40.6266 11.612 37.2918 14.1306L34.3318 16.383L33.2968 14.8963L36.2594 12.642C38.8111 10.7149 39.3867 6.98077 37.5455 4.31583C35.7044 1.65081 32.1325 1.04886 29.5837 2.9738C27.035 4.89877 26.4591 8.63285 28.3001 11.298L32.1788 16.8696L32.1856 16.8792L30.7635 17.9615Z" fill="white"/>
<path d="M22.6887 8.18983H18.0903V6.55518H22.6887V8.18983Z" fill="white"/>
</g>
<defs>
<clipPath id="clip0_1200_4301">
<rect width="74" height="35" fill="white"/>
</clipPath>
</defs>
</svg>
