<svg width="294" height="134" viewBox="0 0 294 134" fill="none" xmlns="http://www.w3.org/2000/svg">
<g clip-path="url(#clip0_1001_156)">
<path d="M286.15 0.5H293.458V56.8634H286.15V31.7416H263.488V24.7362H286.15V0.5ZM256.771 31.7416V31.7735V56.8634H249.463V0.5H256.771V24.7362V31.7416Z" fill="#373737"/>
<path d="M286.143 76.8315H293.451V133.195H286.143V108.105V108.073V101.068V76.8315ZM279.427 108.073H256.765V133.195H249.457V76.8315H256.765V101.068H279.427V108.073Z" fill="#373737"/>
<path d="M37.0478 0.774414H44.3559V57.1378H37.0478V32.016H7.66942V57.1378H0.361328V0.774414H7.66942V25.0109H37.0478V0.774414Z" fill="#373737"/>
<path d="M67.0112 7.78086V50.1337H96.828V57.1388H59.7031V0.775391H95.8049V7.78086H67.0112Z" fill="#373737"/>
<path d="M167.904 56.8634V0.5H175.212V49.8583H202.91V56.8634H167.904Z" fill="#373737"/>
<path d="M216.723 56.8634V7.50511H199.184V0.5H241.497V7.50511H223.958V56.8634H216.723Z" fill="#373737"/>
<path d="M23.8574 132.806V76.4424H29.8501L51.1808 116.037L72.2369 76.4424H78.2293L78.3026 132.806H71.2869L71.2188 91.705L52.7241 125.962H49.3626L30.8732 91.9605V132.806H23.8574Z" fill="#373737"/>
<path d="M167.112 132.806V83.4479H149.572V76.4424H191.886V83.4479H174.346V132.806H167.112Z" fill="#373737"/>
<path d="M219.499 133.45C215.601 133.45 212.008 132.739 208.719 131.317C205.431 129.894 202.58 127.881 200.169 125.278C197.757 122.674 195.869 119.628 194.505 116.139C193.14 112.65 192.459 108.812 192.459 104.625C192.459 100.438 193.141 96.5999 194.505 93.1104C195.869 89.6214 197.769 86.5752 200.205 83.9717C202.641 81.3682 205.503 79.3554 208.792 77.9329C212.081 76.5105 215.674 75.7993 219.572 75.7993C223.518 75.7993 227.16 76.5374 230.497 78.0137C233.834 79.49 236.672 81.6775 239.011 84.5759L234.261 89.6486C232.312 87.3942 230.12 85.7166 227.684 84.6163C225.248 83.516 222.641 82.9657 219.864 82.9657C216.99 82.9657 214.322 83.5025 211.862 84.5759C209.401 85.6493 207.27 87.1525 205.467 89.0848C203.664 91.0172 202.264 93.3121 201.265 95.9695C200.266 98.6265 199.767 101.512 199.767 104.625C199.767 107.739 200.266 110.624 201.265 113.281C202.264 115.938 203.664 118.233 205.467 120.165C207.27 122.098 209.401 123.601 211.862 124.674C214.322 125.748 216.989 126.284 219.864 126.284C222.641 126.284 225.248 125.734 227.684 124.634C230.12 123.533 232.312 121.829 234.261 119.521L239.011 124.594C236.672 127.492 233.834 129.693 230.497 131.196C227.16 132.699 223.493 133.451 219.498 133.451L219.499 133.45Z" fill="#373737"/>
<path d="M128.193 64.5859L128.207 64.6054L143.637 85.8053C153.216 99.0657 150.223 117.632 136.972 127.203C123.722 136.774 105.155 133.781 95.5833 120.531C86.0115 107.28 89.0066 88.7136 102.256 79.1432L114.016 70.5839L118.128 76.2335L106.358 84.7996C96.2201 92.1222 93.9334 106.312 101.248 116.439C108.563 126.567 122.754 128.854 132.88 121.539C143.007 114.224 145.294 100.035 137.981 89.9071L122.571 68.7348L122.544 68.6983L128.193 64.5859Z" fill="#FFB020"/>
<path d="M122.585 68.7543L122.571 68.7348L107.141 47.5348C97.561 34.2744 100.555 15.7085 113.806 6.13706C127.056 -3.43402 145.623 -0.440684 155.194 12.8091C164.766 26.0602 161.771 44.6265 148.522 54.1969L136.762 62.7563L132.65 57.1066L144.42 48.5405C154.557 41.2175 156.844 27.0277 149.53 16.9009C142.215 6.77386 128.024 4.48643 117.898 11.8012C107.771 19.1161 105.484 33.3056 112.798 43.433L128.208 64.6054L128.234 64.6419L122.585 68.7543Z" fill="#159F9A"/>
<path d="M90.5035 31.6204H72.2344V25.4087H90.5035V31.6204Z" fill="#373737"/>
</g>
<defs>
<clipPath id="clip0_1001_156">
<rect width="294" height="133" fill="white" transform="translate(0 0.5)"/>
</clipPath>
</defs>
</svg>
