<svg width="20" height="35" viewBox="0 0 20 35" fill="none" xmlns="http://www.w3.org/2000/svg">
<g clip-path="url(#clip0_1359_234)">
<path d="M10.6705 16.7432L10.6742 16.7481L14.6943 22.1677C17.19 25.5576 16.4101 30.3038 12.9579 32.7505C9.50558 35.1972 4.6683 34.4321 2.17459 31.0449C-0.319209 27.6576 0.461122 22.9112 3.91308 20.4646L6.97699 18.2765L8.04824 19.7208L4.98173 21.9106C2.3405 23.7825 1.74472 27.4099 3.65041 29.9988C5.55629 32.5879 9.25346 33.1726 11.8917 31.3026C14.5301 29.4326 15.1261 25.8052 13.2206 23.2163L9.20572 17.8038L9.19869 17.7945L10.6705 16.7432Z" fill="white"/>
<path d="M9.2093 17.8089L9.2056 17.8039L5.1855 12.3844C2.68975 8.99448 3.46971 4.24829 6.92195 1.80146C10.3743 -0.645286 15.2116 0.119928 17.7053 3.50709C20.1991 6.89461 19.4187 11.6409 15.9668 14.0875L12.9029 16.2755L11.8316 14.8313L14.8981 12.6415C17.5393 10.7694 18.1351 7.14192 16.2295 4.55313C14.3236 1.96425 10.6264 1.37949 7.98811 3.24945C5.34982 5.1194 4.75379 8.74679 6.65938 11.3358L10.6742 16.7482L10.6811 16.7576L9.2093 17.8089Z" fill="white"/>
</g>
<defs>
<clipPath id="clip0_1359_234">
<rect width="18.7586" height="34" fill="white" transform="translate(0.620605 0.369141)"/>
</clipPath>
</defs>
</svg>
